<svg xmlns="http://www.w3.org/2000/svg" width="345" height="32" viewBox="0 0 345 32" fill="none">
<path d="M28.0273 0.219727C26.7798 0.288086 24.541 0.322266 22.1484 0.322266C19.8413 0.322266 17.3975 0.288086 15.9619 0.219727V0.92041C18.064 1.02295 18.4399 1.38184 18.4399 3.92822V12.1826H10.5615V3.92822C10.5615 1.38184 10.9204 1.02295 13.0566 0.92041V0.219727C11.6895 0.288086 9.38232 0.322266 7.21191 0.322266C4.68262 0.322266 2.30713 0.288086 0.974121 0.219727V0.92041C3.07617 1.02295 3.46924 1.38184 3.46924 3.92822V21.2915C3.46924 23.8379 3.11035 24.1968 0.974121 24.2993V25C2.30713 24.9316 4.68262 24.8975 7.21191 24.8975C9.38232 24.8975 11.6895 24.9316 13.0566 25V24.2993C10.9546 24.1968 10.5615 23.8379 10.5615 21.2915V12.8833H18.4399V21.2915C18.4399 23.8379 18.0981 24.1968 15.9619 24.2993V25C17.3975 24.9316 19.8413 24.8975 22.1484 24.8975C24.541 24.8975 26.7798 24.9316 28.0273 25V24.2993C25.9424 24.1968 25.5493 23.8379 25.5493 21.2915V3.92822C25.5493 1.38184 25.9082 1.02295 28.0273 0.92041V0.219727ZM39.3838 6.33789C33.9492 6.33789 30.3774 8.86719 30.3774 15.9424C30.3774 23.0005 33.9492 25.4956 39.3838 25.4956C44.8013 25.4956 48.373 23.0005 48.373 15.9424C48.373 8.86719 44.8013 6.33789 39.3838 6.33789ZM39.3838 7.03857C40.7852 7.03857 41.8276 9.67041 41.8276 15.9424C41.8276 22.1973 40.7852 24.7949 39.3838 24.7949C37.9824 24.7949 36.9229 22.1973 36.9229 15.9424C36.9229 9.67041 37.9824 7.03857 39.3838 7.03857ZM62.5322 15.5835C67.3516 15.2246 69.5391 13.3105 69.5391 10.9351C69.5391 8.57666 67.7275 6.86768 62.293 6.86768C60.7549 6.86768 58.4819 7.00439 56.1064 7.00439C54.2778 7.00439 52.1416 6.90186 51.2017 6.86768V7.60254C52.6372 7.60254 53.167 8.1665 53.167 10.1318V21.7529C53.167 23.7012 52.6372 24.2651 51.2017 24.2651V25C52.21 24.9658 54.5 24.8633 56.4482 24.8633C58.9775 24.8633 61.5581 25 63.062 25C68.394 25 70.1714 23.2227 70.1714 20.3174C70.1714 17.2925 68.2402 15.7031 62.5322 15.5835ZM59.4561 10.1318C59.4561 8.02979 59.7808 7.60254 60.7549 7.60254C62.7886 7.60254 63.1646 9.36279 63.1646 11.4136C63.1646 14.0454 62.5493 15.4468 59.4561 15.5151V10.1318ZM60.8574 24.2651C59.8149 24.2651 59.4561 23.8721 59.4561 21.7529V16.2158H59.8149C62.6519 16.2158 63.7285 17.4463 63.7285 20.3516C63.7285 22.2998 63.25 24.2651 60.8574 24.2651ZM82.2285 6.33789C76.7939 6.33789 73.2222 8.86719 73.2222 15.9424C73.2222 23.0005 76.7939 25.4956 82.2285 25.4956C87.646 25.4956 91.2178 23.0005 91.2178 15.9424C91.2178 8.86719 87.646 6.33789 82.2285 6.33789ZM82.2285 7.03857C83.6299 7.03857 84.6724 9.67041 84.6724 15.9424C84.6724 22.1973 83.6299 24.7949 82.2285 24.7949C80.8271 24.7949 79.7676 22.1973 79.7676 15.9424C79.7676 9.67041 80.8271 7.03857 82.2285 7.03857ZM103.36 6.33789C98.2847 6.33789 94.354 9.20898 94.354 15.9424C94.354 23.0005 98.1138 25.4956 102.796 25.4956C106.966 25.4956 109.239 22.3682 110.111 19.5483L109.513 19.3262C107.975 21.4624 106.231 21.6675 105.274 21.6675C103.224 21.6675 100.899 20.3857 100.899 15.4468C100.899 11.9434 101.634 7.36328 104.967 7.36328C105.599 7.36328 106.043 7.53418 106.368 7.77344C104.83 8.20068 103.497 9.53369 103.497 11.2769C103.497 13.1396 104.659 14.4385 106.71 14.4385C108.675 14.4385 110.077 12.9517 110.077 11.0376C110.077 9.43115 109.239 8.13232 107.975 7.39746C107.035 6.8335 105.394 6.33789 103.36 6.33789ZM128.252 6.86768C127.141 6.86768 124.766 7.00439 122.407 7.00439C120.1 7.00439 117.759 6.86768 116.631 6.86768H112.683C112.854 9.07227 112.922 11.2427 112.922 12.3364C112.922 13.3105 112.888 14.2505 112.82 14.8486H113.623C114.854 9.67041 116.921 7.60254 118.289 7.60254H119.297V21.7529C119.297 24.0259 118.186 24.2651 116.289 24.2651V25C117.554 24.9658 119.998 24.8633 122.476 24.8633C124.971 24.8633 127.346 24.9658 128.611 25V24.2651C126.714 24.2651 125.603 23.667 125.603 21.394V7.60254H126.611C127.979 7.60254 130.046 9.67041 131.277 14.8486H132.08C132.012 14.2505 131.978 13.3105 131.978 12.3364C131.978 11.2427 132.046 9.07227 132.217 6.86768H128.252ZM156.886 6.86768C155.878 6.90186 153.605 7.00439 151.64 7.00439C149.828 7.00439 147.897 6.90186 147.025 6.86768V7.60254C148.119 7.60254 148.563 8.09814 148.632 9.75586L142.992 20.7788V10.1318C142.992 8.1665 143.419 7.60254 144.616 7.60254V6.86768C143.659 6.90186 141.591 7.00439 139.643 7.00439C137.814 7.00439 135.678 6.90186 134.738 6.86768V7.60254C136.173 7.60254 136.703 8.1665 136.703 10.1318V21.7529C136.703 23.7012 136.173 24.2651 134.738 24.2651V25C135.746 24.9658 138.036 24.8633 139.984 24.8633C141.813 24.8633 143.727 24.9658 144.616 25V24.2651C143.539 24.2651 143.078 23.8037 143.009 22.2998L148.632 11.2256V21.7529C148.632 23.7012 148.205 24.2651 147.025 24.2651V25C147.965 24.9658 150.033 24.8633 151.999 24.8633C153.81 24.8633 155.946 24.9658 156.886 25V24.2651C155.451 24.2651 154.938 23.7012 154.938 21.7529V10.1318C154.938 8.1665 155.451 7.60254 156.886 7.60254V6.86768ZM187.854 22.334C186.914 19.9927 186.691 18.2495 185.615 16.9849C184.675 15.9082 183.085 15.1562 180.607 15.1562C180.095 15.1562 179.531 15.1904 178.95 15.2588C180.163 14.6094 180.539 13.5156 180.966 11.875C181.77 8.69629 181.872 7.22656 184.282 7.07275C182.812 7.8418 182.248 9.03809 182.248 10.1318C182.248 12.1826 184.248 12.9175 185.649 12.9175C187.426 12.9175 188.759 11.7725 188.759 9.70459C188.759 7.73926 187.546 6.33789 184.777 6.33789C181.735 6.33789 181.206 7.99561 180.402 11.2769C179.719 14.0967 179.223 15.2075 176.438 15.3955V10.1318C176.438 8.1665 176.967 7.60254 178.403 7.60254V6.86768C177.463 6.90186 175.361 7.00439 173.464 7.00439C171.584 7.00439 169.191 6.90186 168.183 6.86768V7.60254C169.619 7.60254 170.148 8.1665 170.148 10.1318V21.7529C170.148 23.7012 169.619 24.2651 168.183 24.2651V25C169.123 24.9658 171.293 24.8633 173.19 24.8633C175.07 24.8633 177.395 24.9658 178.403 25V24.2651C176.967 24.2651 176.438 23.7012 176.438 21.7529V16.0278C176.608 16.0107 176.779 16.0107 176.933 16.0107C178.044 16.0107 178.847 16.4209 179.343 16.9849C180.368 18.1128 180.966 20.5566 181.137 21.3599C181.804 24.2993 183.82 25.2051 186.914 25.2051C187.785 25.2051 188.691 25.1367 189.631 25V24.2651C188.657 24.1284 188.349 23.5645 187.854 22.334ZM206.456 6.97021C205.602 6.97021 203.756 6.93604 202.765 6.8335V7.56836C204.217 7.6709 205.328 8.79883 205.328 11.0889C205.328 12.063 205.14 13.2593 204.662 14.6777L203.209 19.1553L198.885 8.90137C198.783 8.6792 198.749 8.5083 198.749 8.35449C198.749 7.58545 199.791 7.56836 200.851 7.56836V6.8335C199.449 6.93604 197.945 7.03857 195.775 7.03857C194.015 7.03857 191.93 6.97021 190.067 6.8335V7.56836C190.562 7.56836 191.297 7.73926 192.101 9.53369L200.27 27.5806L200.082 28.1445C199.449 30.0757 198.253 30.9473 196.749 30.9473C196.476 30.9473 195.912 30.9473 195.57 30.8789C197.142 30.3833 197.843 29.2041 197.843 28.1787C197.843 26.4697 196.612 25.5981 194.681 25.5981C192.63 25.5981 191.263 26.6406 191.263 28.2983C191.263 30.7422 194.1 31.5796 196.014 31.5796C197.74 31.5796 198.646 31.2378 199.278 30.7422C199.945 30.2124 200.389 29.4092 200.816 28.2129L202.286 23.9917L206.661 10.9692C207.43 8.69629 208.268 7.89307 209.139 7.56836V6.8335C208.609 6.93604 207.293 6.97021 206.456 6.97021ZM227.742 6.86768C226.87 6.90186 224.768 7.00439 223.401 7.00439C221.829 7.00439 220.82 6.86768 218.445 6.86768C216.753 6.86768 216.121 6.93604 215.01 6.93604C214.241 6.93604 213.301 6.90186 212.908 6.86768V7.60254C214.719 7.60254 215.693 8.09814 215.693 9.79004C215.693 9.89258 215.676 10.0122 215.676 10.1318C215.386 13.9429 214.941 18.6597 213.711 21.6675C213.01 23.4277 211.968 24.8291 210.464 24.8291C210.208 24.8291 210.037 24.7949 209.934 24.7607C211.404 24.1284 212.737 23.0347 212.737 21.189C212.737 19.5825 211.746 18.1128 209.695 18.1128C207.729 18.1128 206.328 19.3945 206.328 21.5991C206.328 24.4019 208.567 25.4956 210.276 25.4956C212.104 25.4956 213.438 24.2993 214.412 21.8555C215.642 18.728 216.018 14.541 216.411 10.1318C216.582 8.26904 216.548 7.60254 217.915 7.60254H218.223C219.419 7.60254 219.829 8.1665 219.829 10.1318V21.7529C219.829 23.7012 219.316 24.2651 217.881 24.2651V25C218.889 24.9658 221.196 24.8633 223.093 24.8633C224.99 24.8633 226.87 24.9658 227.742 25V24.2651C226.562 24.2651 226.135 23.7012 226.135 21.7529V10.1318C226.135 8.1665 226.528 7.60254 227.742 7.60254V6.86768ZM241.063 14.4727C240.397 14.4727 239.594 14.4897 238.603 14.5239V10.1318C238.603 8.1665 239.132 7.60254 240.568 7.60254V6.86768C239.542 6.90186 237.235 7.00439 235.355 7.00439C233.458 7.00439 231.579 6.90186 230.69 6.86768V7.60254C231.886 7.60254 232.313 8.1665 232.313 10.1318V21.7529C232.313 23.7012 231.886 24.2651 230.69 24.2651V25C231.647 24.9658 233.783 24.8633 235.526 24.8633C237.526 24.8633 238.927 25 240.431 25C247.216 25 249.66 22.0947 249.66 19.4287C249.66 16.6431 247.011 14.4727 241.063 14.4727ZM239.936 24.2651C238.859 24.2651 238.603 24.0942 238.603 22.9663V15.2417H238.705C242.003 15.2417 243.234 16.4893 243.234 19.8218C243.234 22.0947 242.602 24.2651 239.936 24.2651ZM266.604 6.86768C265.494 6.86768 263.118 7.00439 260.76 7.00439C258.453 7.00439 256.111 6.86768 254.983 6.86768H251.036C251.207 9.07227 251.275 11.2427 251.275 12.3364C251.275 13.3105 251.241 14.2505 251.172 14.8486H251.976C253.206 9.67041 255.274 7.60254 256.641 7.60254H257.649V21.7529C257.649 24.0259 256.539 24.2651 254.642 24.2651V25C255.906 24.9658 258.35 24.8633 260.828 24.8633C263.323 24.8633 265.699 24.9658 266.963 25V24.2651C265.066 24.2651 263.956 23.667 263.956 21.394V7.60254H264.964C266.331 7.60254 268.399 9.67041 269.629 14.8486H270.433C270.364 14.2505 270.33 13.3105 270.33 12.3364C270.33 11.2427 270.398 9.07227 270.569 6.86768H266.604ZM288.352 6.97021C287.497 6.97021 285.651 6.93604 284.66 6.8335V7.56836C286.113 7.6709 287.224 8.79883 287.224 11.0889C287.224 12.063 287.036 13.2593 286.557 14.6777L285.104 19.1553L280.781 8.90137C280.678 8.6792 280.644 8.5083 280.644 8.35449C280.644 7.58545 281.687 7.56836 282.746 7.56836V6.8335C281.345 6.93604 279.841 7.03857 277.67 7.03857C275.91 7.03857 273.825 6.97021 271.962 6.8335V7.56836C272.458 7.56836 273.193 7.73926 273.996 9.53369L282.165 27.5806L281.977 28.1445C281.345 30.0757 280.148 30.9473 278.645 30.9473C278.371 30.9473 277.807 30.9473 277.465 30.8789C279.038 30.3833 279.738 29.2041 279.738 28.1787C279.738 26.4697 278.508 25.5981 276.577 25.5981C274.526 25.5981 273.159 26.6406 273.159 28.2983C273.159 30.7422 275.996 31.5796 277.91 31.5796C279.636 31.5796 280.542 31.2378 281.174 30.7422C281.84 30.2124 282.285 29.4092 282.712 28.2129L284.182 23.9917L288.557 10.9692C289.326 8.69629 290.163 7.89307 291.035 7.56836V6.8335C290.505 6.93604 289.189 6.97021 288.352 6.97021ZM306.39 6.33789C304.015 6.33789 302.169 7.19238 301.075 8.96973V6.4917C299.332 6.8335 297.333 6.97021 294.991 6.97021C294.291 6.97021 293.556 6.93604 292.821 6.86768V7.60254C294.291 7.60254 294.786 8.57666 294.786 10.6787V28.0762C294.786 30.0415 294.256 30.6055 292.821 30.6055V31.3403C293.761 31.3062 295.76 31.1865 297.64 31.1865C300.238 31.1865 302.801 31.3062 304.083 31.3403V30.6055C302.203 30.6055 301.075 30.0073 301.075 27.7344V24.8291C301.964 25.3247 303.143 25.4956 304.339 25.4956C308.714 25.4956 312.491 23.0688 312.491 15.1221C312.491 9.1748 309.859 6.33789 306.39 6.33789ZM302.306 24.436C301.896 24.436 301.434 24.3677 301.075 24.1455V10.6787C301.075 9.20898 302.306 8.1665 303.604 8.1665C304.886 8.1665 305.946 9.73877 305.946 15.9424C305.946 21.5991 304.886 24.436 302.306 24.436ZM325.967 14.4727C325.3 14.4727 324.497 14.4897 323.506 14.5239V10.1318C323.506 8.1665 324.036 7.60254 325.471 7.60254V6.86768C324.446 6.90186 322.139 7.00439 320.259 7.00439C318.362 7.00439 316.482 6.90186 315.593 6.86768V7.60254C316.79 7.60254 317.217 8.1665 317.217 10.1318V21.7529C317.217 23.7012 316.79 24.2651 315.593 24.2651V25C316.55 24.9658 318.687 24.8633 320.43 24.8633C322.429 24.8633 323.831 25 325.334 25C332.119 25 334.563 22.0947 334.563 19.4287C334.563 16.6431 331.914 14.4727 325.967 14.4727ZM344.68 6.86768C343.74 6.90186 341.604 7.00439 339.792 7.00439C337.827 7.00439 335.486 6.90186 334.46 6.86768V7.60254C335.896 7.60254 336.426 8.1665 336.426 10.1318V21.7529C336.426 23.7012 335.896 24.2651 334.46 24.2651V25C335.417 24.9658 337.622 24.8633 339.434 24.8633C341.399 24.8633 343.672 24.9658 344.68 25V24.2651C343.245 24.2651 342.732 23.7012 342.732 21.7529V10.1318C342.732 8.1665 343.245 7.60254 344.68 7.60254V6.86768ZM324.839 24.2651C323.762 24.2651 323.506 24.0942 323.506 22.9663V15.2417H323.608C326.907 15.2417 328.137 16.4893 328.137 19.8218C328.137 22.0947 327.505 24.2651 324.839 24.2651Z" fill="black"/>
</svg>