<svg xmlns="http://www.w3.org/2000/svg" width="279" height="26" viewBox="0 0 279 26" fill="none">
<path d="M22.428 0.735999C21.8307 0.773332 21.392 0.847999 21.112 0.96C20.8507 1.072 20.6733 1.28667 20.58 1.604C20.4867 1.92133 20.44 2.43467 20.44 3.144V17.032C20.44 17.7413 20.4867 18.2547 20.58 18.572C20.692 18.8893 20.8787 19.104 21.14 19.216C21.4013 19.328 21.8307 19.4027 22.428 19.44V20C21.42 19.944 19.852 19.916 17.724 19.916C15.5773 19.916 13.9253 19.944 12.768 20V19.44C13.3653 19.4027 13.7947 19.328 14.056 19.216C14.336 19.104 14.5227 18.8893 14.616 18.572C14.7093 18.2547 14.756 17.7413 14.756 17.032V10.312H8.456V17.032C8.456 17.7413 8.50267 18.2547 8.596 18.572C8.708 18.8893 8.89467 19.104 9.156 19.216C9.41733 19.328 9.84667 19.4027 10.444 19.44V20C9.36133 19.944 7.80267 19.916 5.768 19.916C3.50933 19.916 1.848 19.944 0.784 20V19.44C1.38133 19.4027 1.81067 19.328 2.072 19.216C2.352 19.104 2.53867 18.8893 2.632 18.572C2.72533 18.2547 2.772 17.7413 2.772 17.032V3.144C2.772 2.43467 2.716 1.92133 2.604 1.604C2.51067 1.28667 2.33333 1.072 2.072 0.96C1.81067 0.847999 1.38133 0.773332 0.784 0.735999V0.176C1.848 0.231999 3.50933 0.259999 5.768 0.259999C7.784 0.259999 9.34267 0.231999 10.444 0.176V0.735999C9.84667 0.773332 9.408 0.847999 9.128 0.96C8.86667 1.072 8.68933 1.28667 8.596 1.604C8.50267 1.92133 8.456 2.43467 8.456 3.144V9.752H14.756V3.144C14.756 2.43467 14.7 1.92133 14.588 1.604C14.4947 1.28667 14.3173 1.072 14.056 0.96C13.7947 0.847999 13.3653 0.773332 12.768 0.735999V0.176C13.9253 0.231999 15.5773 0.259999 17.724 0.259999C19.852 0.259999 21.42 0.231999 22.428 0.176V0.735999ZM31.732 5.076C34.028 5.076 35.8013 5.68267 37.052 6.896C38.3026 8.09067 38.928 10.0413 38.928 12.748C38.928 15.4547 38.3026 17.4053 37.052 18.6C35.8013 19.7947 34.028 20.392 31.732 20.392C29.436 20.392 27.6626 19.7947 26.412 18.6C25.1613 17.4053 24.536 15.4547 24.536 12.748C24.536 10.0413 25.1613 8.09067 26.412 6.896C27.6626 5.68267 29.436 5.076 31.732 5.076ZM31.732 5.636C31.1346 5.636 30.6586 6.224 30.304 7.4C29.9493 8.576 29.772 10.3587 29.772 12.748C29.772 15.1373 29.9493 16.92 30.304 18.096C30.6586 19.2533 31.1346 19.832 31.732 19.832C32.3293 19.832 32.8053 19.2533 33.16 18.096C33.5146 16.92 33.692 15.1373 33.692 12.748C33.692 10.3587 33.5146 8.576 33.16 7.4C32.8053 6.224 32.3293 5.636 31.732 5.636ZM50.4608 12.468C52.6821 12.5053 54.2501 12.832 55.1648 13.448C56.0981 14.064 56.5648 14.9973 56.5648 16.248C56.5648 17.48 56.1261 18.4133 55.2488 19.048C54.3714 19.6827 52.9154 20 50.8808 20C50.6008 20 49.9381 19.9813 48.8928 19.944C47.5488 19.9067 46.4474 19.888 45.5888 19.888C44.9541 19.888 43.5541 19.9253 41.3888 20V19.412C41.9674 19.412 42.3688 19.272 42.5928 18.992C42.8354 18.6933 42.9568 18.1613 42.9568 17.396V8.1C42.9568 7.33467 42.8354 6.812 42.5928 6.532C42.3688 6.23333 41.9674 6.084 41.3888 6.084V5.496C43.4048 5.57067 44.7114 5.608 45.3088 5.608C46.0741 5.608 47.0728 5.58933 48.3048 5.552C49.3128 5.51467 49.9661 5.496 50.2648 5.496C54.1288 5.496 56.0608 6.57867 56.0608 8.744C56.0608 9.752 55.5848 10.592 54.6328 11.264C53.6994 11.936 52.3088 12.3373 50.4608 12.468ZM47.9968 12.412C49.1728 12.3933 49.9568 12.132 50.3488 11.628C50.7594 11.1053 50.9648 10.2747 50.9648 9.136C50.9648 8.184 50.8248 7.43733 50.5448 6.896C50.2834 6.35467 49.7794 6.084 49.0328 6.084C48.6221 6.084 48.3421 6.21467 48.1928 6.476C48.0621 6.73733 47.9968 7.27867 47.9968 8.1V12.412ZM49.1168 19.412C49.9941 19.412 50.5914 19.1227 50.9088 18.544C51.2448 17.9653 51.4128 17.2093 51.4128 16.276C51.4128 15.1 51.1701 14.26 50.6848 13.756C50.1994 13.2333 49.3968 12.972 48.2768 12.972H47.9968V17.396C47.9968 18.2173 48.0714 18.7587 48.2208 19.02C48.3888 19.2813 48.6874 19.412 49.1168 19.412ZM66.4078 5.076C68.7038 5.076 70.4771 5.68267 71.7278 6.896C72.9784 8.09067 73.6038 10.0413 73.6038 12.748C73.6038 15.4547 72.9784 17.4053 71.7278 18.6C70.4771 19.7947 68.7038 20.392 66.4078 20.392C64.1118 20.392 62.3384 19.7947 61.0878 18.6C59.8371 17.4053 59.2118 15.4547 59.2118 12.748C59.2118 10.0413 59.8371 8.09067 61.0878 6.896C62.3384 5.68267 64.1118 5.076 66.4078 5.076ZM66.4078 5.636C65.8104 5.636 65.3344 6.224 64.9798 7.4C64.6251 8.576 64.4478 10.3587 64.4478 12.748C64.4478 15.1373 64.6251 16.92 64.9798 18.096C65.3344 19.2533 65.8104 19.832 66.4078 19.832C67.0051 19.832 67.4811 19.2533 67.8358 18.096C68.1904 16.92 68.3678 15.1373 68.3678 12.748C68.3678 10.3587 68.1904 8.576 67.8358 7.4C67.4811 6.224 67.0051 5.636 66.4078 5.636ZM83.5126 5.076C84.2779 5.076 84.9779 5.16 85.6126 5.328C86.2659 5.47733 86.7979 5.67333 87.2086 5.916C87.7312 6.21467 88.1419 6.616 88.4406 7.12C88.7392 7.624 88.8886 8.19333 88.8886 8.828C88.8886 9.612 88.6366 10.2653 88.1326 10.788C87.6286 11.292 86.9846 11.544 86.2006 11.544C85.3979 11.544 84.7632 11.32 84.2966 10.872C83.8486 10.4053 83.6246 9.78933 83.6246 9.024C83.6246 8.352 83.8392 7.764 84.2686 7.26C84.7166 6.73733 85.2672 6.392 85.9206 6.224C85.6406 6 85.2672 5.888 84.8006 5.888C83.6059 5.888 82.7659 6.532 82.2806 7.82C81.7952 9.08933 81.5526 10.6013 81.5526 12.356C81.5526 14.148 81.8886 15.4267 82.5606 16.192C83.2326 16.9573 84.0632 17.34 85.0526 17.34C86.4152 17.34 87.5446 16.7147 88.4406 15.464L88.9166 15.632C88.5059 16.9387 87.8059 18.0587 86.8166 18.992C85.8459 19.9253 84.5952 20.392 83.0646 20.392C81.0299 20.392 79.3966 19.7853 78.1646 18.572C76.9326 17.3587 76.3166 15.4173 76.3166 12.748C76.3166 10.1907 76.9699 8.27733 78.2766 7.008C79.6019 5.72 81.3472 5.076 83.5126 5.076ZM106.799 5.496C106.668 7.13867 106.603 8.59467 106.603 9.864C106.603 10.7227 106.631 11.3947 106.687 11.88H106.043C105.725 10.5733 105.352 9.49067 104.923 8.632C104.493 7.75467 104.045 7.11067 103.579 6.7C103.131 6.28933 102.711 6.084 102.319 6.084H101.507V17.116C101.507 17.9747 101.703 18.572 102.095 18.908C102.505 19.244 103.112 19.412 103.915 19.412V20L103.103 19.972C100.975 19.916 99.6119 19.888 99.0146 19.888C98.3799 19.888 96.9986 19.916 94.8706 19.972L94.0586 20V19.412C94.9173 19.412 95.5333 19.2907 95.9066 19.048C96.2799 18.7867 96.4666 18.236 96.4666 17.396V6.084H95.6546C95.2626 6.084 94.8333 6.28933 94.3666 6.7C93.9186 7.11067 93.4799 7.75467 93.0506 8.632C92.6213 9.49067 92.2479 10.5733 91.9306 11.88H91.2866C91.3426 11.3947 91.3706 10.7227 91.3706 9.864C91.3706 8.59467 91.3053 7.13867 91.1746 5.496H94.3386L95.8786 5.524C96.7746 5.58 97.8013 5.608 98.9586 5.608C100.153 5.608 101.199 5.58 102.095 5.524L103.635 5.496H106.799ZM126.714 6.084C126.136 6.084 125.725 6.23333 125.482 6.532C125.258 6.812 125.146 7.33467 125.146 8.1V17.396C125.146 18.1613 125.258 18.6933 125.482 18.992C125.725 19.272 126.136 19.412 126.714 19.412V20C124.698 19.9253 123.392 19.888 122.794 19.888C122.16 19.888 120.834 19.9253 118.818 20V19.412C119.304 19.412 119.64 19.272 119.826 18.992C120.013 18.6933 120.106 18.1613 120.106 17.396V8.968L115.598 17.844C115.636 18.4413 115.748 18.852 115.934 19.076C116.121 19.3 116.438 19.412 116.886 19.412V20C115.02 19.9253 113.788 19.888 113.19 19.888C112.556 19.888 111.156 19.9253 108.99 20V19.412C109.569 19.412 109.97 19.272 110.194 18.992C110.437 18.6933 110.558 18.1613 110.558 17.396V8.1C110.558 7.33467 110.437 6.812 110.194 6.532C109.97 6.23333 109.569 6.084 108.99 6.084V5.496C111.006 5.57067 112.313 5.608 112.91 5.608C113.545 5.608 114.87 5.57067 116.886 5.496V6.084C116.401 6.084 116.065 6.23333 115.878 6.532C115.692 6.812 115.598 7.33467 115.598 8.1V16.612L120.106 7.792C120.088 7.13867 119.976 6.69067 119.77 6.448C119.584 6.20533 119.266 6.084 118.818 6.084V5.496C120.685 5.57067 121.917 5.608 122.514 5.608C123.149 5.608 124.549 5.57067 126.714 5.496V6.084ZM151.855 17.872C152.079 18.4133 152.275 18.796 152.443 19.02C152.63 19.2253 152.91 19.356 153.283 19.412V20C152.537 20.112 151.809 20.168 151.099 20.168C149.793 20.168 148.757 19.9347 147.991 19.468C147.245 19.0013 146.741 18.208 146.479 17.088C146.349 16.5093 146.162 15.884 145.919 15.212C145.695 14.5213 145.406 13.98 145.051 13.588C144.603 13.0653 143.959 12.804 143.119 12.804L142.727 12.832V17.396C142.727 18.1613 142.839 18.6933 143.063 18.992C143.306 19.272 143.717 19.412 144.295 19.412V20C142.13 19.9253 140.739 19.888 140.123 19.888C139.47 19.888 138.135 19.9253 136.119 20V19.412C136.698 19.412 137.099 19.272 137.323 18.992C137.566 18.6933 137.687 18.1613 137.687 17.396V8.1C137.687 7.33467 137.566 6.812 137.323 6.532C137.099 6.23333 136.698 6.084 136.119 6.084V5.496C138.285 5.57067 139.694 5.608 140.347 5.608C140.963 5.608 142.279 5.57067 144.295 5.496V6.084C143.717 6.084 143.306 6.23333 143.063 6.532C142.839 6.812 142.727 7.33467 142.727 8.1V12.328C143.455 12.272 144.006 12.132 144.379 11.908C144.771 11.684 145.07 11.3573 145.275 10.928C145.481 10.4987 145.686 9.864 145.891 9.024C146.153 7.99733 146.386 7.22267 146.591 6.7C146.815 6.17733 147.142 5.776 147.571 5.496C148.001 5.216 148.607 5.076 149.391 5.076C150.455 5.076 151.249 5.31867 151.771 5.804C152.313 6.28933 152.583 6.94267 152.583 7.764C152.583 8.56667 152.35 9.20133 151.883 9.668C151.417 10.116 150.819 10.34 150.091 10.34C149.419 10.34 148.794 10.1533 148.215 9.78C147.655 9.40667 147.375 8.84667 147.375 8.1C147.375 7.63333 147.506 7.18533 147.767 6.756C148.029 6.32667 148.439 5.96267 148.999 5.664C148.439 5.70133 148.01 5.832 147.711 6.056C147.413 6.28 147.189 6.588 147.039 6.98C146.89 7.372 146.713 7.97867 146.507 8.8L146.339 9.5C146.153 10.2653 145.947 10.8533 145.723 11.264C145.518 11.656 145.191 11.964 144.743 12.188C145.191 12.132 145.621 12.104 146.031 12.104C147.861 12.104 149.205 12.5987 150.063 13.588C150.325 13.8867 150.53 14.2227 150.679 14.596C150.847 14.9693 151.034 15.4733 151.239 16.108C151.445 16.7613 151.65 17.3493 151.855 17.872ZM166.903 5.58C167.967 5.58 168.686 5.54267 169.059 5.468V6.056C168.667 6.18667 168.303 6.45733 167.967 6.868C167.65 7.27867 167.351 7.91333 167.071 8.772L163.571 19.188L162.395 22.576C162.059 23.5467 161.649 24.2187 161.163 24.592C160.585 25.04 159.717 25.264 158.559 25.264C157.626 25.264 156.758 25.04 155.955 24.592C155.153 24.1627 154.751 23.5093 154.751 22.632C154.751 21.9787 155.003 21.456 155.507 21.064C156.011 20.672 156.674 20.476 157.495 20.476C158.279 20.476 158.895 20.6533 159.343 21.008C159.791 21.3627 160.015 21.876 160.015 22.548C160.015 22.996 159.857 23.416 159.539 23.808C159.241 24.2187 158.793 24.5173 158.195 24.704C158.382 24.7413 158.699 24.76 159.147 24.76C160.435 24.76 161.322 24.0133 161.807 22.52L161.947 22.044L155.423 7.624C155.143 6.98933 154.863 6.56933 154.583 6.364C154.322 6.15867 154.061 6.056 153.799 6.056V5.468C155.293 5.58 156.814 5.636 158.363 5.636C159.577 5.636 160.93 5.58 162.423 5.468V6.056C161.882 6.056 161.462 6.09333 161.163 6.168C160.883 6.24267 160.743 6.41067 160.743 6.672C160.743 6.82133 160.781 6.97067 160.855 7.12L164.299 15.324L165.475 11.74C165.83 10.6573 166.007 9.70533 166.007 8.884C166.007 8.00667 165.821 7.32533 165.447 6.84C165.074 6.35467 164.579 6.09333 163.963 6.056V5.468C164.654 5.54267 165.634 5.58 166.903 5.58ZM184.143 6.084C183.658 6.084 183.322 6.224 183.135 6.504C182.948 6.784 182.855 7.316 182.855 8.1V17.396C182.855 18.1613 182.948 18.6933 183.135 18.992C183.322 19.272 183.658 19.412 184.143 19.412V20C182.276 19.9253 181.035 19.888 180.419 19.888C179.803 19.888 178.412 19.9253 176.247 20V19.412C176.826 19.412 177.227 19.272 177.451 18.992C177.694 18.6933 177.815 18.1613 177.815 17.396V8.1C177.815 7.33467 177.722 6.812 177.535 6.532C177.348 6.23333 177.012 6.084 176.527 6.084H176.275C175.92 6.084 175.668 6.14933 175.519 6.28C175.37 6.392 175.267 6.56 175.211 6.784C175.174 7.008 175.127 7.44667 175.071 8.1C174.866 10.3773 174.651 12.2347 174.427 13.672C174.222 15.0907 173.904 16.36 173.475 17.48C173.083 18.4693 172.616 19.2067 172.075 19.692C171.534 20.1587 170.899 20.392 170.171 20.392C169.368 20.392 168.64 20.1307 167.987 19.608C167.334 19.0853 167.007 18.3107 167.007 17.284C167.007 16.4253 167.25 15.744 167.735 15.24C168.239 14.736 168.892 14.484 169.695 14.484C170.479 14.484 171.076 14.7267 171.487 15.212C171.916 15.6787 172.131 16.2573 172.131 16.948C172.131 18.2173 171.384 19.1693 169.891 19.804C170.003 19.8413 170.143 19.86 170.311 19.86C171.375 19.86 172.243 19.02 172.915 17.34C173.344 16.2573 173.671 14.9413 173.895 13.392C174.138 11.824 174.334 10.06 174.483 8.1C174.539 7.35333 174.38 6.83067 174.007 6.532C173.652 6.23333 173.074 6.084 172.271 6.084V5.496C172.682 5.53333 173.242 5.552 173.951 5.552C174.436 5.552 174.8 5.54267 175.043 5.524L176.695 5.496C177.442 5.496 178.244 5.51467 179.103 5.552C179.812 5.58933 180.335 5.608 180.671 5.608C181.119 5.608 182.276 5.57067 184.143 5.496V6.084ZM194.963 11.572C197.24 11.572 198.957 11.9453 200.115 12.692C201.272 13.42 201.851 14.372 201.851 15.548C201.851 16.3133 201.599 17.032 201.095 17.704C200.591 18.376 199.788 18.9267 198.687 19.356C197.585 19.7853 196.176 20 194.459 20C194.123 20 193.563 19.9813 192.779 19.944C191.883 19.9067 191.136 19.888 190.539 19.888C189.979 19.888 188.691 19.9253 186.675 20V19.412C187.16 19.412 187.496 19.272 187.683 18.992C187.869 18.6933 187.963 18.1613 187.963 17.396V8.1C187.963 7.33467 187.869 6.812 187.683 6.532C187.496 6.23333 187.16 6.084 186.675 6.084V5.496C188.541 5.57067 189.783 5.608 190.399 5.608C191.015 5.608 192.405 5.57067 194.571 5.496V6.084C193.992 6.084 193.581 6.23333 193.339 6.532C193.115 6.812 193.003 7.33467 193.003 8.1V11.6L194.963 11.572ZM194.067 19.412C195.821 19.412 196.699 18.2267 196.699 15.856C196.699 14.5307 196.419 13.588 195.859 13.028C195.317 12.468 194.393 12.188 193.087 12.188H193.003V18.376C193.003 18.824 193.068 19.1133 193.199 19.244C193.329 19.356 193.619 19.412 194.067 19.412ZM218.771 5.496C218.641 7.13867 218.575 8.59467 218.575 9.864C218.575 10.7227 218.603 11.3947 218.659 11.88H218.015C217.698 10.5733 217.325 9.49067 216.895 8.632C216.466 7.75467 216.018 7.11067 215.551 6.7C215.103 6.28933 214.683 6.084 214.291 6.084H213.479V17.116C213.479 17.9747 213.675 18.572 214.067 18.908C214.478 19.244 215.085 19.412 215.887 19.412V20L215.075 19.972C212.947 19.916 211.585 19.888 210.987 19.888C210.353 19.888 208.971 19.916 206.843 19.972L206.031 20V19.412C206.89 19.412 207.506 19.2907 207.879 19.048C208.253 18.7867 208.439 18.236 208.439 17.396V6.084H207.627C207.235 6.084 206.806 6.28933 206.339 6.7C205.891 7.11067 205.453 7.75467 205.023 8.632C204.594 9.49067 204.221 10.5733 203.903 11.88H203.259C203.315 11.3947 203.343 10.7227 203.343 9.864C203.343 8.59467 203.278 7.13867 203.147 5.496H206.311L207.851 5.524C208.747 5.58 209.774 5.608 210.931 5.608C212.126 5.608 213.171 5.58 214.067 5.524L215.607 5.496H218.771ZM233.165 5.58C234.229 5.58 234.948 5.54267 235.321 5.468V6.056C234.929 6.18667 234.565 6.45733 234.229 6.868C233.912 7.27867 233.613 7.91333 233.333 8.772L229.833 19.188L228.657 22.576C228.321 23.5467 227.91 24.2187 227.425 24.592C226.846 25.04 225.978 25.264 224.821 25.264C223.888 25.264 223.02 25.04 222.217 24.592C221.414 24.1627 221.013 23.5093 221.013 22.632C221.013 21.9787 221.265 21.456 221.769 21.064C222.273 20.672 222.936 20.476 223.757 20.476C224.541 20.476 225.157 20.6533 225.605 21.008C226.053 21.3627 226.277 21.876 226.277 22.548C226.277 22.996 226.118 23.416 225.801 23.808C225.502 24.2187 225.054 24.5173 224.457 24.704C224.644 24.7413 224.961 24.76 225.409 24.76C226.697 24.76 227.584 24.0133 228.069 22.52L228.209 22.044L221.685 7.624C221.405 6.98933 221.125 6.56933 220.845 6.364C220.584 6.15867 220.322 6.056 220.061 6.056V5.468C221.554 5.58 223.076 5.636 224.625 5.636C225.838 5.636 227.192 5.58 228.685 5.468V6.056C228.144 6.056 227.724 6.09333 227.425 6.168C227.145 6.24267 227.005 6.41067 227.005 6.672C227.005 6.82133 227.042 6.97067 227.117 7.12L230.561 15.324L231.737 11.74C232.092 10.6573 232.269 9.70533 232.269 8.884C232.269 8.00667 232.082 7.32533 231.709 6.84C231.336 6.35467 230.841 6.09333 230.225 6.056V5.468C230.916 5.54267 231.896 5.58 233.165 5.58ZM247.809 5.076C249.265 5.076 250.441 5.67333 251.337 6.868C252.233 8.06267 252.681 9.808 252.681 12.104C252.681 15.072 252.084 17.2 250.889 18.488C249.695 19.7573 248.117 20.392 246.157 20.392C245.075 20.392 244.207 20.2147 243.553 19.86V22.184C243.553 23.0427 243.749 23.64 244.141 23.976C244.552 24.312 245.159 24.48 245.961 24.48V25.068L245.149 25.04C242.909 24.984 241.463 24.956 240.809 24.956C240.249 24.956 238.961 24.9933 236.945 25.068V24.48C237.524 24.48 237.925 24.3307 238.149 24.032C238.392 23.752 238.513 23.2293 238.513 22.464V8.548C238.513 7.68933 238.392 7.064 238.149 6.672C237.925 6.28 237.524 6.084 236.945 6.084V5.496C237.524 5.552 238.103 5.58 238.681 5.58C240.623 5.58 242.247 5.44933 243.553 5.188V7.176C244.412 5.776 245.831 5.076 247.809 5.076ZM244.533 19.552C245.56 19.552 246.297 19.0013 246.745 17.9C247.212 16.78 247.445 15.0627 247.445 12.748C247.445 10.452 247.277 8.84667 246.941 7.932C246.605 6.99867 246.148 6.532 245.569 6.532C245.028 6.532 244.552 6.728 244.141 7.12C243.749 7.49333 243.553 7.96933 243.553 8.548V19.328C243.796 19.4773 244.123 19.552 244.533 19.552ZM263.658 11.572C265.935 11.572 267.653 11.9453 268.81 12.692C269.967 13.42 270.546 14.372 270.546 15.548C270.546 16.3133 270.294 17.032 269.79 17.704C269.286 18.376 268.483 18.9267 267.382 19.356C266.281 19.7853 264.871 20 263.154 20C262.818 20 262.258 19.9813 261.474 19.944C260.578 19.9067 259.831 19.888 259.234 19.888C258.674 19.888 257.386 19.9253 255.37 20V19.412C255.855 19.412 256.191 19.272 256.378 18.992C256.565 18.6933 256.658 18.1613 256.658 17.396V8.1C256.658 7.33467 256.565 6.812 256.378 6.532C256.191 6.23333 255.855 6.084 255.37 6.084V5.496C257.237 5.57067 258.478 5.608 259.094 5.608C259.71 5.608 261.101 5.57067 263.266 5.496V6.084C262.687 6.084 262.277 6.23333 262.034 6.532C261.81 6.812 261.698 7.33467 261.698 8.1V11.6L263.658 11.572ZM278.638 6.084C278.059 6.084 277.649 6.23333 277.406 6.532C277.182 6.812 277.07 7.33467 277.07 8.1V17.396C277.07 18.1613 277.182 18.6933 277.406 18.992C277.649 19.272 278.059 19.412 278.638 19.412V20C276.473 19.9253 275.073 19.888 274.438 19.888C273.803 19.888 272.478 19.9253 270.462 20V19.412C271.041 19.412 271.442 19.272 271.666 18.992C271.909 18.6933 272.03 18.1613 272.03 17.396V8.1C272.03 7.33467 271.909 6.812 271.666 6.532C271.442 6.23333 271.041 6.084 270.462 6.084V5.496C272.627 5.57067 274.046 5.608 274.718 5.608C275.315 5.608 276.622 5.57067 278.638 5.496V6.084ZM262.762 19.412C264.517 19.412 265.394 18.2267 265.394 15.856C265.394 14.5307 265.114 13.588 264.554 13.028C264.013 12.468 263.089 12.188 261.782 12.188H261.698V18.376C261.698 18.824 261.763 19.1133 261.894 19.244C262.025 19.356 262.314 19.412 262.762 19.412Z" fill="white"/>
</svg>
